<svg width="700" height="605" viewBox="0 0 700 605" fill="none" xmlns="http://www.w3.org/2000/svg">
<path d="M295.139 0.245041C329.165 0.73405 364.436 0.240247 398.55 0.245041H600.134C604.892 3.39484 622.82 36.9927 626.888 44.0881C636.139 60.2278 699.216 162.69 700 170.48C690.33 185.925 672.488 205.648 660.8 220.503L381.561 575.521C376.487 581.929 368.981 592.486 364.003 598.157C356.322 605.703 343.965 607.916 337.253 598.157C328.027 587.885 313.647 568.584 304.698 557.224L0.00232402 170.48C-0.53223 167.704 91.3176 17.5929 101.201 0.245041C102.445 -0.30869 276.904 0.249835 295.139 0.245041ZM103.852 112.398C135.758 111.044 131.776 65.4798 90.2797 72.3404C59.2731 75.7394 61.5072 110.744 86.1926 112.614C92.123 113.062 97.9696 112.645 103.852 112.398ZM409.269 228.552C419.033 224.281 423.194 218.895 425.999 208.764C422.19 197.002 418.11 189.894 404.593 189.705C368.715 189.204 328.367 187.881 292.768 189.525C265.985 194.935 273.864 229.737 293.904 228.469C302.361 228.586 310.547 228.588 318.903 228.574L392.964 228.593C397.449 228.615 405.053 228.986 409.269 228.552Z" fill="#CCCCCC" fill-opacity="0.8"/>
<path d="M295.139 0.245041C329.165 0.73405 364.436 0.240247 398.55 0.245041H600.134C581.274 37.7885 559.405 74.5385 537.999 110.651L517.587 145.452C512.879 153.537 507.654 162.045 503.715 170.48H501.635C468.507 169.862 433.286 170.478 400.041 170.48H197.586H195.11C192.885 164.854 188.185 157.073 185.068 151.651L119.158 34.6291C115.313 27.759 103.212 6.54463 101.201 0.245041C102.445 -0.30869 276.904 0.249835 295.139 0.245041Z" fill="white"/>
<path d="M600.134 0.245029C604.892 3.39482 622.82 36.9927 626.888 44.0881C636.139 60.2278 699.216 162.69 700 170.48C690.33 185.925 672.488 205.648 660.8 220.503L381.561 575.521C376.487 581.929 368.981 592.486 364.003 598.157C363.204 590.755 386.111 525.803 390.193 513.244L479.102 245.083C487.065 221.428 495.27 193.459 503.715 170.48C507.654 162.045 512.88 153.537 517.587 145.452L537.999 110.651C559.405 74.5385 581.274 37.7885 600.134 0.245029Z" fill="white"/>
<path d="M600.134 0.245029C604.892 3.39482 622.82 36.9927 626.888 44.0881C636.139 60.2278 699.216 162.69 700 170.48C685.277 171.149 664.635 170.487 649.541 170.483L546.149 170.478C542.424 170.478 504.876 170.981 503.715 170.48C507.654 162.045 512.88 153.537 517.587 145.452L537.999 110.651C559.405 74.5385 581.274 37.7885 600.134 0.245029Z" fill="#CCCCCC" fill-opacity="0.8"/>
<path d="M101.201 0.245029C103.212 6.54462 115.313 27.759 119.158 34.6291L185.068 151.651C188.185 157.073 192.885 164.854 195.11 170.48H197.586C197.795 176.904 202.481 190.434 204.588 196.961C237.1 297.603 273.2 397.273 306.065 497.786L326.581 560.381C328.832 567.309 338.04 592.771 337.253 598.157C328.027 587.885 313.647 568.584 304.698 557.224L0.00232402 170.48C-0.53223 167.704 91.3176 17.5929 101.201 0.245029ZM103.852 112.398C135.758 111.044 131.776 65.4798 90.2797 72.3403C59.2731 75.7394 61.5072 110.744 86.1926 112.614C92.123 113.062 97.9696 112.645 103.852 112.398Z" fill="white"/>
<path d="M101.201 0.245029C103.212 6.54462 115.313 27.759 119.158 34.6291L185.068 151.651C188.185 157.073 192.885 164.854 195.11 170.48C191.553 171.06 179.239 170.528 174.607 170.499L41.7431 170.487C31.4092 170.49 9.68902 171.182 0.00232402 170.48C-0.53223 167.704 91.3176 17.5929 101.201 0.245029ZM103.852 112.398C135.758 111.044 131.776 65.4798 90.2797 72.3403C59.2731 75.7394 61.5072 110.744 86.1926 112.614C92.123 113.062 97.9696 112.645 103.852 112.398Z" fill="#CCCCCC" fill-opacity="0.8"/>
</svg>